<svg xmlns="http://www.w3.org/2000/svg" width="1100" height="500" viewBox="0 0 1100 500">
 <rect width="1100" height="500" rx="24" fill="#f4f8fb"/><g font-family="Microsoft YaHei, sans-serif" text-anchor="middle"><g fill="#17324d"><rect x="32" y="210" width="125" height="70" rx="12"/><rect x="205" y="210" width="125" height="70" rx="12"/><rect x="390" y="55" width="150" height="62" rx="12"/><rect x="390" y="219" width="150" height="62" rx="12"/><rect x="390" y="383" width="150" height="62" rx="12"/><rect x="610" y="55" width="170" height="62" rx="12"/><rect x="610" y="219" width="170" height="62" rx="12"/><rect x="610" y="383" width="170" height="62" rx="12"/><rect x="855" y="210" width="205" height="70" rx="12"/></g><g fill="white" font-size="20"><text x="94" y="251">宽带输入</text><text x="267" y="251">功分器</text><text x="465" y="93">带通滤波 1</text><text x="465" y="257">带通滤波 2</text><text x="465" y="421">带通滤波 3</text><text x="695" y="92">混频 + ADC 1</text><text x="695" y="256">混频 + ADC 2</text><text x="695" y="420">混频 + ADC 3</text><text x="957" y="241">数字域重建</text><text x="957" y="266" font-size="16">幅相校准 / 拼接</text></g><g stroke="#3c789b" stroke-width="4" fill="none"><path d="M157 245h48"/><path d="M330 245h28V86h32M358 245h32M358 245v169h32M540 86h70M540 250h70M540 414h70M780 86h40v159h35M780 250h75M780 414h40V245h35"/></g><text x="550" y="485" font-family="Microsoft YaHei, sans-serif" font-size="17" text-anchor="middle" fill="#ba4d4d">示意结构：真实仪器还需要镜像抑制、抗混叠、重叠带与长期校准</text></g>
</svg>
