<svg xmlns="http://www.w3.org/2000/svg" width="1100" height="430" viewBox="0 0 1100 430">
 <rect width="1100" height="430" rx="24" fill="#f4f8fb"/><g font-family="Microsoft YaHei, sans-serif" text-anchor="middle"><g fill="#17324d" stroke="#4d86aa" stroke-width="2"><rect x="40" y="165" width="145" height="72" rx="12"/><rect x="255" y="70" width="170" height="72" rx="12"/><rect x="255" y="285" width="170" height="72" rx="12"/><rect x="510" y="165" width="190" height="72" rx="12"/><rect x="790" y="165" width="235" height="72" rx="12"/></g><g fill="white" font-size="22"><text x="112" y="208">模拟输入</text><text x="340" y="112">ADC 1：0°/180°</text><text x="340" y="327">ADC 2：90°/270°</text><text x="605" y="208">JESD204B</text><text x="907" y="198">FPGA 重排与校准</text><text x="907" y="226" font-size="17">12.8 GSPS 数据流</text></g><g stroke="#3c789b" stroke-width="4" fill="none"><path d="M185 201h35v-95h35"/><path d="M185 201h35v120h35"/><path d="M425 106h85v95"/><path d="M425 321h85v-120"/><path d="M700 201h90"/></g><g fill="#d45555" font-size="18"><text x="340" y="46">每颗 ADC 单通道模式 6.4 GSPS</text><text x="537" y="387">相邻采样点间隔 78.125 ps</text></g></g>
</svg>
